<svg width="16" height="16" fill="none" xmlns="http://www.w3.org/2000/svg"><path d="M3.371 1.043L1.797 2.617a2.697 2.697 0 00-.434 3.262c.688 1.18 1.25 2.05 3.606 4.402 2.351 2.356 2.992 2.676 4.152 3.356a2.69 2.69 0 003.258-.434l1.578-1.574-3.047-3.043-1.238 1.238a5.177 5.177 0 01-.629-.347c-.531-.34-1.211-.86-1.809-1.461A13.74 13.74 0 015.641 6.07a6.93 6.93 0 01-.446-.742l-.008-.016 1.227-1.226-3.043-3.043zm0 1.414L5 4.086l-.715.719a.53.53 0 00-.16.406c0 .09.016.152.031.21.035.122.082.227.14.352.122.243.298.532.516.86a15.05 15.05 0 001.711 2.094c.66.656 1.387 1.21 1.985 1.59.297.19.558.335.781.433.113.05.215.09.336.113.059.012.125.02.215.012a.534.534 0 00.355-.16L10.91 10l1.633 1.629-.871.871a1.692 1.692 0 01-2.047.273c-1.18-.691-1.629-.875-3.953-3.195-2.32-2.324-2.766-3.039-3.445-4.203A1.692 1.692 0 012.5 3.328l.871-.871z" fill="#E4B564"/></svg>